<svg xmlns="http://www.w3.org/2000/svg" width="260" height="40" viewBox="0 0 260 40">
    <defs>
        <style type="text/css">  
            .black  {fill: #000; }
            .yellow {fill: #ffc526; }
            .blue   {fill: #40b4e5; }
            .green  {fill: #047732; }
        </style>
    </defs>
    <polygon class="yellow" points="87.9 11.7 83.2 4.5 83.2 0 81.8 0 81.8 4.6 77.2 11.7 77.2 28.3 81.8 35.4 81.8 40 83.2 40 83.2 35.5 87.9 28.3 "/>
    <polygon class="blue" points="100.9 11.7 96.3 4.5 96.3 0 94.9 0 94.9 4.5 90.3 11.7 90.3 28.3 94.9 35.5 94.9 40 96.3 40 96.3 35.5 100.9 28.3 "/>
    <polygon class="green" points="114 11.7 109.3 4.5 109.3 0 108 0 108 4.5 103.3 11.7 103.3 28.3 108 35.5 108 40 109.3 40 109.3 35.5 114 28.3 "/>
    <path class="black" d="M3 9.4V22.2c0 0.5 0 1 0.1 1.4 0.1 1.6 0.6 3 1.9 4 0.4 0.3 1.4 0.8 2.8 0.8 1.2 0 2-0.4 2.4-0.6 1.9-1.2 2-3.4 2.1-5.5V9.4h3.1v13.3c0 0.3 0 0.7 0 1 0 0.6-0.1 2.6-1.2 4.3 -1.4 2.1-4.1 3.3-6.5 3.3 -3.1 0-6.1-1.8-7.2-4.9C0 25.3 0 24.2 0 23V9.4H3z"/>
    <path class="black" d="M35.6 14.1c-0.4-0.2-0.7-0.5-1.1-0.7 -0.7-0.4-2-1.3-4.2-1.3 -2.4 0-4.9 1.2-6.3 3.1 -1.4 1.9-1.5 4.2-1.5 5 0 0.6 0.1 2.1 0.7 3.6 1.2 2.8 4.2 4.5 7.1 4.5 2.1 0 3.4-0.8 5.2-2v3.7c-0.9 0.5-2.6 1.4-5.2 1.4 -1.3 0-4.4-0.2-7.2-2.7 -1.3-1.1-3.6-3.8-3.6-8.5 0-2.8 0.9-5.5 2.6-7.5 2-2.3 5.2-3.7 8.3-3.7 2 0 3.4 0.6 5.3 1.4L35.6 14.1z"/>
    <path class="black" d="M57.9 31h-3.3l-2.1-5.2h-9l-2.4 5.2h-3.3L48.2 8.1 57.9 31zM44.7 23h6.6l-3.2-7.6L44.7 23z"/>
    <path class="black" d="M61.3 31V9.4c1.2 0 2.4 0 3.6 0 0.7 0 1.3 0 1.9 0.1 0.7 0 2.4 0.2 3.8 1.7 1 1 1.5 2.5 1.5 4 0 1.1-0.4 2.5-1.1 3.3 -0.3 0.3-0.6 0.6-1.2 1 0.6 0.2 1.2 0.4 1.8 0.7 0.8 0.6 2.1 1.9 2.1 4.6 0 1.1-0.2 3.7-2.7 5.2 -1.6 1-3.1 1-6.6 1H61.3zM64.3 28.2c0.7 0 1.3 0 2 0 0.2 0 1.4 0 2.2-0.2 0.8-0.2 2.3-0.9 2.3-3.2 0-2-1.4-2.9-2.1-3.1 -0.7-0.2-1.5-0.2-1.7-0.2 -0.9 0-1.8 0-2.7 0L64.3 28.2 64.3 28.2zM64.3 18.8h1.2c1.2-0.1 2.3-0.2 3-1.2 0.2-0.3 0.7-1.1 0.7-2.2 0-0.4-0.1-1.2-0.6-1.9 -0.8-1.1-1.9-1.2-4.4-1.1L64.3 18.8z"/>
    <path class="black" d="M120.5 9.6v4.4c0 0.2 0 0.3 0 0.5 0.1 0.6 0.2 1 0.7 1.4 0.2 0.1 0.5 0.3 1 0.3 0.4 0 0.7-0.1 0.8-0.2 0.7-0.4 0.7-1.2 0.7-1.9V9.6h1.1v4.6c0 0.1 0 0.2 0 0.4 0 0.2-0.1 0.9-0.4 1.5 -0.5 0.7-1.4 1.1-2.2 1.1 -1.1 0-2.1-0.6-2.5-1.7 -0.1-0.4-0.1-0.8-0.1-1.2V9.6L120.5 9.6 120.5 9.6z"/>
    <path class="black" d="M133.3 9.6h1.1v7.7c-0.8-0.9-1.6-1.7-2.5-2.6 -0.5-0.5-1-1-1.5-1.5 -0.5-0.5-1-1.1-1.5-1.6 0 0.4 0.1 0.7 0.1 1.1 0 0.3 0 0.6 0 1v3.4h-1.1V9c1 1 2 2.1 3 3.1 0.8 0.8 1.6 1.7 2.4 2.5 0-0.2-0.1-0.5-0.1-0.7 0-0.2 0-0.4 0-0.6V9.6L133.3 9.6z"/>
    <path class="black" d="M138.8 9.5v7.4h-1.1V9.5H138.8z"/>
    <path class="black" d="M147.5 9.6l-3.2 7.9 -3.2-7.9h1.2c0.4 1 0.8 1.9 1.2 2.9 0.3 0.8 0.6 1.7 0.9 2.5 0.2-0.5 0.3-1 0.5-1.5 0.2-0.7 0.5-1.3 0.8-1.9 0.3-0.6 0.5-1.3 0.8-1.9L147.5 9.6 147.5 9.6z"/>
    <path class="black" d="M153.8 9.5v1h-2.9v1.8h2.9v1h-2.9v2.6h2.9v1h-3.9V9.5H153.8z"/>
    <path class="black" d="M160.4 17l-2.2-3.2h-0.4v3.2h-1V9.5h2.1c0.5 0 1 0.1 1.4 0.4 0.5 0.4 0.7 1.1 0.7 1.7 0 0.3-0.1 1.3-0.9 1.8 -0.2 0.1-0.3 0.2-0.7 0.3 0.3 0.5 0.7 1 1 1.5 0.3 0.4 0.5 0.7 0.8 1.1 0.2 0.2 0.3 0.5 0.4 0.7L160.4 17 160.4 17zM157.8 10.6v2.3h0.8c0.5 0 0.9-0.1 1.1-0.5 0.1-0.1 0.2-0.4 0.2-0.8 0-0.1 0-0.6-0.3-0.8 -0.2-0.2-0.5-0.2-0.8-0.2L157.8 10.6 157.8 10.6z"/>
    <path class="black" d="M167.2 11.2c-0.1-0.1-0.1-0.2-0.2-0.3 -0.4-0.5-0.7-0.5-1-0.5 -0.2 0-0.3 0-0.4 0.1 -0.5 0.2-0.5 0.7-0.5 0.9 0 0.5 0.5 0.7 0.6 0.8l1.3 0.7c0.2 0.1 0.4 0.2 0.6 0.4 0.7 0.6 0.8 1.3 0.8 1.6 0 0.2 0 0.4-0.1 0.8 -0.4 1-1.2 1.6-2.2 1.6 -0.3 0-1-0.1-1.6-0.6 -0.5-0.4-0.7-0.9-0.9-1.6l1-0.2c0.1 0.4 0.2 0.6 0.3 0.7 0.3 0.4 0.7 0.7 1.2 0.7 0.2 0 0.4-0.1 0.5-0.1 0.4-0.2 0.7-0.7 0.7-1.2 0-0.6-0.4-0.9-0.8-1.2 -0.5-0.3-1-0.4-1.5-0.7 -0.8-0.5-0.9-1.2-0.9-1.6 0-0.2 0.1-0.8 0.4-1.2 0.2-0.3 0.7-0.7 1.6-0.7 0.3 0 0.9 0.1 1.5 0.5 0.3 0.2 0.4 0.4 0.6 0.7L167.2 11.2z"/>
    <path class="black" d="M172.1 9.5v7.4h-1.1V9.5H172.1z"/>
    <path class="black" d="M175.5 16.9V9.5c1.5 0 1.8 0 2.7 0.1 0.6 0.1 0.8 0.2 1.2 0.4 1.2 0.6 1.7 1.9 1.7 3.2 0 0.4-0.1 1.6-0.9 2.6 -0.4 0.5-0.8 0.7-1 0.8 -0.4 0.2-0.9 0.3-1.9 0.4H175.5zM176.5 16c0.2 0 0.5 0 0.7 0 1 0 1.8-0.3 2.4-1.2 0.2-0.2 0.4-0.8 0.4-1.6 0-1.3-0.8-1.9-1.1-2.2 -0.7-0.5-1.6-0.4-2.4-0.4V16z"/>
    <path class="black" d="M189.6 17h-1.1l-0.7-1.8h-3.1l-0.8 1.8h-1.1l3.6-7.9L189.6 17zM185.1 14.2h2.3l-1.1-2.6L185.1 14.2z"/>
    <path class="black" d="M192 16.9V9.5c1.5 0 1.8 0 2.7 0.1 0.6 0.1 0.8 0.2 1.2 0.4 1.2 0.6 1.7 1.9 1.7 3.2 0 0.4-0.1 1.6-0.9 2.6 -0.4 0.5-0.8 0.7-1 0.8 -0.4 0.2-0.9 0.3-1.9 0.4H192zM193 16c0.2 0 0.5 0 0.7 0 1 0 1.8-0.3 2.4-1.2 0.2-0.2 0.4-0.8 0.4-1.6 0-1.3-0.8-1.9-1.1-2.2 -0.7-0.5-1.6-0.4-2.4-0.4V16L193 16z"/>
    <path class="black" d="M209.7 11.2c-0.1-0.1-0.2-0.2-0.4-0.3 -0.2-0.1-0.7-0.5-1.4-0.5 -0.8 0-1.7 0.4-2.2 1.1 -0.5 0.7-0.5 1.4-0.5 1.7 0 0.2 0 0.7 0.3 1.2 0.4 1 1.4 1.5 2.4 1.5 0.7 0 1.2-0.3 1.8-0.7v1.3c-0.3 0.2-0.9 0.5-1.8 0.5 -0.4 0-1.5-0.1-2.5-0.9 -0.4-0.4-1.2-1.3-1.2-2.9 0-1 0.3-1.9 0.9-2.6 0.7-0.8 1.8-1.3 2.8-1.3 0.7 0 1.2 0.2 1.8 0.5L209.7 11.2z"/>
    <path class="black" d="M218.5 17h-1.1l-0.7-1.8h-3.1l-0.8 1.8h-1.1l3.6-7.9L218.5 17zM213.9 14.2h2.3l-1.1-2.6L213.9 14.2z"/>
    <path class="black" d="M223.8 9.5v1h-1.7v6.4h-1v-6.4h-1.7V9.5H223.8z"/>
    <path class="black" d="M226.9 10.6c0.7-0.8 1.7-1.2 2.7-1.2 1.2 0 2.1 0.6 2.4 0.9 0.9 0.7 1.4 1.8 1.4 3 0 0.3 0 0.8-0.3 1.4 -0.6 1.5-2 2.4-3.5 2.4 -1.2 0-2.1-0.6-2.4-0.9 -0.9-0.7-1.4-1.9-1.3-3C225.9 12.2 226.2 11.3 226.9 10.6zM227.5 15c0.5 0.7 1.3 1.1 2.1 1.1 0.3 0 1-0.1 1.7-0.6 0.6-0.5 1-1.3 1-2.2 0-0.5-0.2-0.9-0.2-1.1 -0.4-1-1.4-1.7-2.5-1.7 -0.6 0-1.2 0.2-1.7 0.6 -0.3 0.2-1 0.9-1 2.1C226.9 13.8 227.1 14.5 227.5 15zM231.1 7.7l-1.5 1.3 -0.6-0.3 1.2-1.4L231.1 7.7z"/>
    <path class="black" d="M237.1 9.5v6.4h2.2v1h-3.2V9.5H237.1z"/>
    <path class="black" d="M243 9.5v7.4h-1.1V9.5H243z"/>
    <path class="black" d="M251.2 11.2c-0.1-0.1-0.2-0.2-0.4-0.3 -0.2-0.1-0.7-0.5-1.4-0.5 -0.8 0-1.7 0.4-2.2 1.1 -0.5 0.7-0.5 1.4-0.5 1.7 0 0.2 0 0.7 0.3 1.2 0.4 1 1.4 1.5 2.4 1.5 0.7 0 1.2-0.3 1.8-0.7v1.3c-0.3 0.2-0.9 0.5-1.8 0.5 -0.4 0-1.5-0.1-2.5-0.9 -0.4-0.4-1.2-1.3-1.2-2.9 0-1 0.3-1.9 0.9-2.6 0.7-0.8 1.8-1.3 2.8-1.3 0.7 0 1.2 0.2 1.8 0.5L251.2 11.2z"/>
    <path class="black" d="M260 17h-1.1l-0.7-1.8h-3.1l-0.8 1.8h-1.1l3.6-7.9L260 17zM255.5 14.2h2.3l-1.1-2.6L255.5 14.2z"/>
    <path class="black" d="M125.9 30.6h-1.1l-0.7-1.8h-3.1l-0.8 1.8h-1.1l3.6-7.9L125.9 30.6zM121.4 27.9h2.3l-1.1-2.6L121.4 27.9z"/>
    <path class="black" d="M133.6 23.2h1.1v7.7c-0.8-0.9-1.6-1.7-2.5-2.6 -0.5-0.5-1-1-1.5-1.5 -0.5-0.5-1-1.1-1.5-1.6 0 0.4 0.1 0.7 0.1 1.1 0 0.3 0 0.6 0 1v3.4h-1.1v-7.9c1 1 2 2.1 3 3.1 0.8 0.8 1.6 1.7 2.4 2.5 0-0.2-0.1-0.5-0.1-0.7 0-0.2 0-0.4 0-0.6V23.2L133.6 23.2z"/>
    <path class="black" d="M138 30.6v-7.4c1.5 0 1.8 0 2.7 0.1 0.6 0.1 0.8 0.2 1.2 0.4 1.2 0.6 1.7 1.9 1.7 3.2 0 0.4-0.1 1.6-0.9 2.6 -0.4 0.5-0.8 0.7-1 0.8 -0.4 0.2-0.9 0.3-1.9 0.4L138 30.6 138 30.6zM139 29.6c0.2 0 0.5 0 0.7 0 1 0 1.8-0.3 2.4-1.2 0.2-0.2 0.4-0.8 0.4-1.6 0-1.3-0.8-1.9-1.1-2.2 -0.7-0.5-1.6-0.4-2.4-0.4V29.6z"/>
    <path class="black" d="M149.9 30.6l-2.2-3.2h-0.4v3.2h-1v-7.5h2.1c0.5 0 1 0.1 1.4 0.4 0.5 0.4 0.7 1.1 0.7 1.7 0 0.3-0.1 1.3-0.9 1.8 -0.2 0.1-0.3 0.2-0.7 0.3 0.3 0.5 0.7 1 1 1.5 0.3 0.4 0.5 0.7 0.8 1.1 0.2 0.2 0.3 0.5 0.4 0.7H149.9L149.9 30.6zM147.3 24.2v2.3h0.8c0.5 0 0.9-0.1 1.1-0.5 0.1-0.1 0.2-0.4 0.2-0.8 0-0.1 0-0.6-0.3-0.8 -0.2-0.2-0.5-0.2-0.8-0.2H147.3L147.3 24.2z"/>
    <path class="black" d="M157.6 23.2v1h-2.9v1.8h2.9v1h-2.9v2.6h2.9v1h-3.9v-7.4H157.6zM156.9 21.4l-1.5 1.3 -0.6-0.3 1.2-1.4L156.9 21.4z"/>
    <path class="black" d="M163.4 24.8c-0.1-0.1-0.1-0.2-0.2-0.3C162.9 24.1 162.5 24 162.2 24c-0.2 0-0.3 0-0.4 0.1 -0.5 0.2-0.5 0.7-0.5 0.9 0 0.5 0.5 0.7 0.6 0.8l1.3 0.7c0.2 0.1 0.4 0.2 0.6 0.4 0.7 0.6 0.8 1.3 0.8 1.6 0 0.2 0 0.4-0.1 0.8 -0.4 1-1.2 1.6-2.2 1.6 -0.3 0-1-0.1-1.6-0.6 -0.5-0.4-0.7-0.9-0.9-1.6l1-0.2c0.1 0.4 0.2 0.6 0.3 0.7 0.3 0.4 0.7 0.7 1.2 0.7 0.2 0 0.4-0.1 0.5-0.1 0.4-0.2 0.7-0.7 0.7-1.2 0-0.6-0.4-0.9-0.8-1.2 -0.5-0.3-1-0.4-1.5-0.7 -0.8-0.5-0.9-1.2-0.9-1.6 0-0.2 0.1-0.8 0.5-1.2 0.2-0.3 0.7-0.7 1.6-0.7 0.3 0 0.9 0.1 1.5 0.5 0.3 0.2 0.4 0.4 0.6 0.7L163.4 24.8z"/>
    <path class="black" d="M171.3 30.6v-7.4c0.4 0 0.8 0 1.2 0 0.2 0 0.5 0 0.7 0 0.2 0 0.8 0.1 1.3 0.6 0.3 0.4 0.5 0.9 0.5 1.4 0 0.4-0.1 0.8-0.4 1.1 -0.1 0.1-0.2 0.2-0.4 0.4 0.2 0.1 0.4 0.1 0.6 0.3 0.3 0.2 0.7 0.7 0.7 1.6 0 0.4-0.1 1.3-0.9 1.8 -0.6 0.3-1.1 0.3-2.3 0.3H171.3zM172.3 29.7c0.2 0 0.5 0 0.7 0 0.1 0 0.5 0 0.8-0.1 0.3-0.1 0.8-0.3 0.8-1.1 0-0.7-0.5-1-0.7-1.1 -0.2-0.1-0.5-0.1-0.6-0.1 -0.3 0-0.6 0-0.9 0L172.3 29.7 172.3 29.7zM172.3 26.5h0.4c0.4 0 0.8-0.1 1-0.4 0.1-0.1 0.2-0.4 0.2-0.7 0-0.1 0-0.4-0.2-0.7 -0.3-0.4-0.7-0.4-1.5-0.4L172.3 26.5z"/>
    <path class="black" d="M182.4 23.2v1h-2.9v1.8h2.9v1h-2.9v2.6h2.9v1h-3.9v-7.4H182.4z"/>
    <path class="black" d="M186.5 23.2v6.4h2.2v1h-3.2v-7.4H186.5z"/>
    <path class="black" d="M192.3 23.2v6.4h2.2v1h-3.2v-7.4H192.3z"/>
    <path class="black" d="M197.1 24.3c0.7-0.8 1.7-1.2 2.7-1.2 1.2 0 2.1 0.6 2.4 0.9 0.9 0.7 1.4 1.8 1.4 3 0 0.3 0 0.8-0.3 1.4 -0.6 1.5-2 2.4-3.5 2.4 -1.2 0-2.1-0.6-2.4-0.9 -0.9-0.7-1.4-1.9-1.3-3C196.1 25.9 196.5 24.9 197.1 24.3zM197.7 28.6c0.5 0.7 1.3 1.1 2.1 1.1 0.3 0 1-0.1 1.7-0.6 0.6-0.5 1-1.3 1-2.2 0-0.5-0.2-0.9-0.2-1.1 -0.4-1-1.4-1.7-2.5-1.7 -0.6 0-1.2 0.2-1.7 0.6 -0.3 0.2-1 0.9-1 2C197.1 27.4 197.3 28.1 197.7 28.6z"/>
</svg>